<?xml version="1.0" standalone="no"?>
<!DOCTYPE svg PUBLIC "-//W3C//DTD SVG 20010904//EN"
 "http://www.w3.org/TR/2001/REC-SVG-20010904/DTD/svg10.dtd">
<svg version="1.0" xmlns="http://www.w3.org/2000/svg"
 width="496.000000pt" height="576.000000pt" viewBox="0 0 496.000000 576.000000"
 preserveAspectRatio="xMidYMid meet">

<g transform="translate(0.000000,576.000000) scale(0.100000,-0.100000)"
fill="#000000" stroke="none">
<path d="M2426 5741 c-3 -4 -47 -32 -98 -61 -51 -29 -115 -67 -143 -85 -44
-29 -223 -132 -304 -176 -16 -9 -42 -24 -58 -35 -15 -10 -77 -47 -138 -82
-387 -226 -593 -347 -810 -477 -93 -57 -226 -134 -295 -173 -185 -104 -272
-155 -305 -178 -17 -11 -70 -42 -118 -68 -49 -26 -104 -61 -123 -78 l-34 -30
0 -1423 0 -1423 43 -37 c23 -20 60 -47 82 -59 22 -13 123 -70 225 -127 102
-57 221 -125 265 -152 44 -27 91 -55 105 -61 14 -6 46 -24 70 -39 25 -16 95
-57 155 -92 61 -35 137 -80 170 -100 33 -20 94 -56 135 -79 41 -23 152 -87
245 -141 94 -54 222 -128 285 -163 63 -35 162 -92 220 -126 58 -35 150 -88
205 -120 55 -31 132 -77 170 -101 86 -54 113 -56 189 -10 32 19 62 35 67 35 5
0 9 4 9 9 0 5 9 12 20 16 10 3 66 34 122 68 57 35 153 89 213 122 61 32 137
75 170 95 109 67 279 167 365 215 47 26 112 64 145 85 33 20 103 62 155 92 52
30 117 68 144 84 26 16 60 35 75 43 14 7 118 69 231 136 113 67 261 154 330
192 314 176 309 172 323 217 9 32 12 350 12 1443 0 1246 -2 1404 -15 1418 -9
8 -110 71 -225 140 -116 69 -217 129 -225 135 -8 6 -55 33 -105 61 -49 28
-216 126 -370 217 -154 91 -334 197 -400 235 -66 39 -144 85 -172 104 -29 18
-57 33 -61 33 -5 0 -22 10 -36 21 -15 12 -51 34 -79 49 -63 33 -253 144 -362
210 -44 27 -87 52 -95 56 -8 4 -17 10 -20 13 -7 9 -164 100 -229 133 -52 27
-114 37 -125 19z m404 -856 c68 -41 130 -75 136 -75 6 0 19 -9 28 -19 10 -11
33 -27 52 -36 19 -9 98 -55 177 -102 201 -121 343 -203 353 -203 4 0 14 -7 23
-16 9 -8 50 -34 91 -58 79 -45 435 -251 508 -295 24 -14 55 -36 70 -49 l27
-22 -30 -25 c-16 -14 -57 -39 -90 -56 -33 -18 -69 -39 -80 -49 -21 -17 -201
-120 -246 -140 -30 -14 -51 -5 -159 64 -36 24 -99 62 -140 85 -41 24 -102 60
-135 81 -33 20 -143 86 -245 145 -102 59 -203 120 -225 134 -22 14 -87 53
-145 86 -88 51 -106 65 -111 90 -4 17 -7 144 -8 283 -1 196 2 252 12 252 6 0
68 -34 137 -75z m-570 -195 c0 -300 0 -301 -82 -344 -29 -16 -78 -43 -108 -61
-148 -86 -311 -182 -360 -213 -30 -19 -111 -67 -180 -106 -69 -40 -151 -89
-182 -109 -31 -21 -60 -37 -64 -37 -3 0 -33 -18 -66 -40 -40 -27 -71 -40 -94
-40 -36 0 -84 18 -84 32 0 4 -5 8 -11 8 -6 0 -64 34 -130 75 -65 41 -133 82
-151 91 -18 9 -48 28 -66 42 l-33 25 68 44 c37 24 86 53 108 65 22 11 65 36
95 55 153 95 799 473 808 473 4 0 23 13 42 30 19 16 40 29 45 30 6 0 28 12 49
26 22 15 92 57 156 94 64 37 134 79 156 94 21 14 49 26 61 26 l23 0 0 -260z
m258 -786 c68 -28 510 -296 561 -340 l25 -21 -40 -25 c-94 -60 -484 -288 -531
-312 -29 -14 -60 -26 -69 -26 -14 0 -368 204 -494 285 -19 12 -57 34 -83 50
l-49 27 29 30 c15 16 38 34 51 39 13 5 132 74 265 153 133 78 249 146 257 149
25 9 39 8 78 -9z m-1908 -344 c14 -11 29 -20 33 -20 5 0 21 -9 36 -19 15 -11
54 -34 86 -52 33 -18 103 -60 156 -94 l96 -62 6 -84 c4 -46 7 -247 7 -446 l0
-362 -82 -54 c-46 -30 -106 -67 -135 -82 -29 -15 -60 -35 -70 -44 -10 -9 -29
-21 -43 -28 -14 -6 -48 -26 -77 -42 -35 -21 -54 -27 -59 -20 -22 37 -13 1429
10 1429 6 0 22 -9 36 -20z m3773 -47 c9 -88 7 -1183 -1 -1290 l-7 -81 -80 50
c-44 27 -89 53 -100 58 -11 4 -45 25 -75 45 -30 20 -80 50 -111 66 -31 15 -60
36 -63 46 -4 9 -12 200 -18 423 -8 308 -8 415 1 447 13 49 33 64 251 188 74
43 146 86 159 96 13 11 27 19 31 19 4 0 10 -30 13 -67z m-2828 -457 c181 -105
293 -172 370 -219 50 -31 112 -69 139 -84 26 -16 69 -41 95 -58 l46 -30 3
-357 c2 -280 0 -358 -10 -358 -7 0 -51 25 -98 56 -47 30 -137 86 -200 123 -63
37 -137 81 -164 97 -27 16 -61 36 -75 44 -94 55 -151 94 -157 108 -8 18 -17
668 -9 690 6 17 14 15 60 -12z m1893 -351 l-3 -340 -208 -125 c-114 -69 -230
-138 -259 -155 -28 -16 -58 -35 -67 -40 -98 -62 -164 -96 -176 -91 -12 4 -15
36 -17 183 -4 288 3 485 18 514 8 16 42 43 81 65 91 50 529 311 573 340 60 41
61 36 58 -351z m-2251 -778 c90 -55 305 -183 474 -282 57 -33 159 -93 228
-133 69 -41 174 -101 232 -133 81 -45 110 -66 119 -88 13 -32 11 -463 -2 -476
-10 -10 -22 -4 -118 60 -24 17 -61 39 -81 50 -20 11 -67 39 -105 61 -38 23
-138 81 -222 130 -84 49 -204 118 -265 154 -62 36 -124 72 -139 80 -14 8 -59
35 -100 59 -150 91 -286 170 -368 215 -106 59 -180 112 -180 130 0 8 35 32 78
55 42 22 122 68 177 101 160 96 145 95 272 17z m2868 -45 c77 -44 157 -92 178
-106 36 -25 50 -56 24 -56 -7 0 -30 -12 -52 -27 -22 -16 -134 -82 -250 -149
-216 -124 -363 -210 -678 -397 -100 -60 -211 -125 -247 -144 -63 -35 -132 -76
-255 -155 -69 -44 -90 -47 -99 -15 -10 38 -7 437 4 457 5 10 67 51 137 91 209
119 635 369 678 399 22 15 59 37 82 49 23 11 84 46 135 77 144 88 137 85 172
70 17 -7 94 -49 171 -94z"/>
</g>
</svg>
