<svg xmlns="http://www.w3.org/2000/svg" xmlns:xlink="http://www.w3.org/1999/xlink" width="1080" zoomAndPan="magnify" viewBox="0 0 810 809.999993" height="1080" preserveAspectRatio="xMidYMid meet" version="1.0"><defs><g/><clipPath id="528f25a65b"><path d="M 81 81 L 729 81 L 729 729 L 81 729 Z M 81 81 " clip-rule="nonzero"/></clipPath><clipPath id="3cca18ef2c"><path d="M 405 81 C 226.058594 81 81 226.058594 81 405 C 81 583.941406 226.058594 729 405 729 C 583.941406 729 729 583.941406 729 405 C 729 226.058594 583.941406 81 405 81 Z M 405 81 " clip-rule="nonzero"/></clipPath><clipPath id="c91b957462"><path d="M 592.921875 505.554688 L 666.957031 505.554688 L 666.957031 696.714844 L 592.921875 696.714844 Z M 592.921875 505.554688 " clip-rule="nonzero"/></clipPath><clipPath id="c4ec66b390"><path d="M 340.0625 461.371094 L 456.496094 461.371094 L 456.496094 517.382812 L 340.0625 517.382812 Z M 340.0625 461.371094 " clip-rule="nonzero"/></clipPath></defs><g clip-path="url(#528f25a65b)"><g clip-path="url(#3cca18ef2c)"><path fill="#272727" d="M 81 81 L 729 81 L 729 729 L 81 729 Z M 81 81 " fill-opacity="1" fill-rule="nonzero"/></g></g><g fill="#ffffff" fill-opacity="1"><g transform="translate(183.57898, 517.104743)"><g><path d="M 24.984375 -232.21875 L 225.8125 -232.21875 L 225.8125 -176.53125 L 99.578125 -176.53125 L 99.578125 -144.46875 L 207.578125 -144.46875 L 207.578125 -91.140625 L 99.578125 -91.140625 L 99.578125 -55.6875 L 228.171875 -55.6875 L 228.171875 0 L 24.984375 0 Z M 24.984375 -232.21875 "/></g></g></g><path stroke-linecap="butt" transform="matrix(1.067664, 0, 0, 1.067664, 282.388319, 169.046203)" fill="none" stroke-linejoin="miter" d="M 290.90076 326.00068 L 290.90076 247.584026 C 290.90076 237.910456 291.26297 227.951508 291.983732 217.7145 C 292.755715 207.473833 293.553309 198.879576 294.376513 191.935386 C 295.199718 184.987538 295.711934 180.560526 295.916821 178.658009 L 294.683843 178.658009 L 254.548039 326.00068 L 199.825047 326.00068 L 159.381913 178.965338 L 158.148936 178.965338 C 158.353822 180.871515 158.920919 185.243647 159.846567 192.089051 C 160.772215 198.930797 161.646641 207.473833 162.469846 217.7145 C 163.344272 227.951508 163.783315 237.910456 163.783315 247.584026 L 163.783315 326.00068 L 99.642861 326.00068 L 99.642861 108.499013 L 198.281081 108.499013 L 231.161707 233.999319 L 232.398344 233.999319 L 264.967982 108.499013 L 360.134107 108.499013 L 360.134107 326.00068 Z M 290.90076 326.00068 " stroke="#272727" stroke-width="45.050236" stroke-opacity="1" stroke-miterlimit="4"/><g fill="#ffffff" fill-opacity="1"><g transform="translate(368.502112, 517.104743)"><g><path d="M 224.453125 0 L 224.453125 -83.703125 C 224.453125 -94.054688 224.847656 -104.6875 225.640625 -115.59375 C 226.429688 -126.507812 227.273438 -135.679688 228.171875 -143.109375 C 229.066406 -150.535156 229.628906 -155.265625 229.859375 -157.296875 L 228.515625 -157.296875 L 185.640625 0 L 127.25 0 L 84.046875 -156.953125 L 82.6875 -156.953125 C 82.914062 -154.929688 83.535156 -150.257812 84.546875 -142.9375 C 85.566406 -135.625 86.523438 -126.507812 87.421875 -115.59375 C 88.316406 -104.6875 88.765625 -94.054688 88.765625 -83.703125 L 88.765625 0 L 20.25 0 L 20.25 -232.21875 L 125.5625 -232.21875 L 160.671875 -98.21875 L 162.015625 -98.21875 L 196.78125 -232.21875 L 298.375 -232.21875 L 298.375 0 Z M 224.453125 0 "/></g></g></g><g clip-path="url(#c91b957462)"><path fill="#ffffff" d="M 592.921875 505.554688 L 666.957031 505.554688 L 666.957031 696.71875 L 592.921875 696.71875 Z M 592.921875 505.554688 " fill-opacity="1" fill-rule="nonzero"/></g><g clip-path="url(#c4ec66b390)"><path fill="#ffffff" d="M 340.0625 461.371094 L 456.460938 461.371094 L 456.460938 517.382812 L 340.0625 517.382812 Z M 340.0625 461.371094 " fill-opacity="1" fill-rule="nonzero"/></g></svg>